<svg xmlns="http://www.w3.org/2000/svg" version="1.1" viewBox="0 0 400 400" width="400" height="400">
<rect fill="rgb(255,255,255)" x="0" y="0" width="400" height="400"/><defs/><!--ITEM: Text 1--><g transform="translate(-89.0 67.0) rotate(0.0 289.0 133.0)  scale(1.0 1.0)"><svg width="578.0" height="266.0" viewBox="0.0 0.0 578.0 266.0"><g transform="translate(70 70)">
      
    </g>
  </svg></g><!--ITEM: Text 2--><g transform="translate(-222.0 -370.0) rotate(0.0 426.0 570.0)  scale(1.0 1.0)"><svg width="852.0" height="1140.0" viewBox="0.0 0.0 852.0 1140.0"><g transform="translate(300 300)">
      <path fill="black" stroke="black" d="M128.40 329.55L164.40 175.05L244.50 175.05L244.50 180.75L228 180.75L228 379.35L244.50 379.35L244.50 385.05L153 385.05L153 379.35L169.50 379.35L169.50 191.85L168.30 191.85L123.30 385.05L85.80 385.05L33 190.95L31.80 190.95L31.80 379.35L48.30 379.35L48.30 385.05L7.50 385.05L7.50 379.35L24 379.35L24 180.75L7.50 180.75L7.50 175.05L88.50 175.05L128.40 329.55Z" stroke-width="0"/>
    </g>
  </svg></g></svg>